<mxfile host="app.diagrams.net" modified="2020-11-23T13:13:14.733Z" agent="5.0 (X11; Linux x86_64) AppleWebKit/537.36 (KHTML, like Gecko) Chrome/86.0.4240.198 Safari/537.36" etag="ZLpUNO8OMHvV0p0scxzI" version="13.10.1" type="github">
  <diagram id="R2lEEEUBdFMjLlhIrx00" name="Page-1">
    <mxGraphModel dx="868" dy="521" grid="1" gridSize="10" guides="1" tooltips="1" connect="1" arrows="1" fold="1" page="1" pageScale="1" pageWidth="850" pageHeight="1100" math="0" shadow="0" extFonts="Permanent Marker^https://fonts.googleapis.com/css?family=Permanent+Marker">
      <root>
        <mxCell id="0" />
        <mxCell id="1" parent="0" />
        <mxCell id="7ZhrNfoXhHtPn5ah-EHw-1" style="edgeStyle=orthogonalEdgeStyle;rounded=0;orthogonalLoop=1;jettySize=auto;html=1;entryX=1.063;entryY=0.9;entryDx=0;entryDy=0;entryPerimeter=0;" edge="1" parent="1" source="7ZhrNfoXhHtPn5ah-EHw-2" target="7ZhrNfoXhHtPn5ah-EHw-39">
          <mxGeometry relative="1" as="geometry" />
        </mxCell>
        <mxCell id="7ZhrNfoXhHtPn5ah-EHw-2" value="" style="ellipse;whiteSpace=wrap;html=1;" vertex="1" parent="1">
          <mxGeometry x="785" y="170" width="60" height="50" as="geometry" />
        </mxCell>
        <mxCell id="7ZhrNfoXhHtPn5ah-EHw-3" style="edgeStyle=orthogonalEdgeStyle;rounded=0;orthogonalLoop=1;jettySize=auto;html=1;entryX=1;entryY=0.25;entryDx=0;entryDy=0;" edge="1" parent="1" target="7ZhrNfoXhHtPn5ah-EHw-39">
          <mxGeometry relative="1" as="geometry">
            <mxPoint x="795" y="95" as="sourcePoint" />
          </mxGeometry>
        </mxCell>
        <mxCell id="7ZhrNfoXhHtPn5ah-EHw-4" value="" style="ellipse;whiteSpace=wrap;html=1;" vertex="1" parent="1">
          <mxGeometry x="795" y="75" width="60" height="50" as="geometry" />
        </mxCell>
        <mxCell id="7ZhrNfoXhHtPn5ah-EHw-5" value="" style="ellipse;whiteSpace=wrap;html=1;" vertex="1" parent="1">
          <mxGeometry x="545" y="420" width="65" height="45" as="geometry" />
        </mxCell>
        <mxCell id="7ZhrNfoXhHtPn5ah-EHw-6" value="" style="ellipse;whiteSpace=wrap;html=1;" vertex="1" parent="1">
          <mxGeometry x="445" y="417.5" width="65" height="45" as="geometry" />
        </mxCell>
        <mxCell id="7ZhrNfoXhHtPn5ah-EHw-7" value="" style="ellipse;whiteSpace=wrap;html=1;" vertex="1" parent="1">
          <mxGeometry x="227.5" y="287.5" width="65" height="45" as="geometry" />
        </mxCell>
        <mxCell id="7ZhrNfoXhHtPn5ah-EHw-8" value="" style="ellipse;whiteSpace=wrap;html=1;" vertex="1" parent="1">
          <mxGeometry x="167.5" y="227.5" width="65" height="45" as="geometry" />
        </mxCell>
        <mxCell id="7ZhrNfoXhHtPn5ah-EHw-9" style="edgeStyle=orthogonalEdgeStyle;rounded=0;orthogonalLoop=1;jettySize=auto;html=1;exitX=1;exitY=0.5;exitDx=0;exitDy=0;entryX=0;entryY=0.5;entryDx=0;entryDy=0;" edge="1" parent="1" source="7ZhrNfoXhHtPn5ah-EHw-10" target="7ZhrNfoXhHtPn5ah-EHw-15">
          <mxGeometry relative="1" as="geometry" />
        </mxCell>
        <mxCell id="7ZhrNfoXhHtPn5ah-EHw-10" value="" style="rounded=0;whiteSpace=wrap;html=1;" vertex="1" parent="1">
          <mxGeometry x="270" y="150" width="110" height="60" as="geometry" />
        </mxCell>
        <mxCell id="7ZhrNfoXhHtPn5ah-EHw-11" value="Premier Liga&amp;nbsp;" style="text;html=1;strokeColor=none;fillColor=none;align=center;verticalAlign=middle;whiteSpace=wrap;rounded=0;" vertex="1" parent="1">
          <mxGeometry x="305" y="170" width="40" height="20" as="geometry" />
        </mxCell>
        <mxCell id="7ZhrNfoXhHtPn5ah-EHw-12" value="" style="rounded=0;whiteSpace=wrap;html=1;" vertex="1" parent="1">
          <mxGeometry x="705" y="290" width="115" height="60" as="geometry" />
        </mxCell>
        <mxCell id="7ZhrNfoXhHtPn5ah-EHw-13" value="Equipos de liga" style="text;html=1;strokeColor=none;fillColor=none;align=center;verticalAlign=middle;whiteSpace=wrap;rounded=0;" vertex="1" parent="1">
          <mxGeometry x="742.5" y="307.5" width="40" height="20" as="geometry" />
        </mxCell>
        <mxCell id="7ZhrNfoXhHtPn5ah-EHw-14" style="edgeStyle=orthogonalEdgeStyle;rounded=0;orthogonalLoop=1;jettySize=auto;html=1;exitX=1;exitY=0.5;exitDx=0;exitDy=0;entryX=0;entryY=0.5;entryDx=0;entryDy=0;" edge="1" parent="1" source="7ZhrNfoXhHtPn5ah-EHw-15" target="7ZhrNfoXhHtPn5ah-EHw-39">
          <mxGeometry relative="1" as="geometry" />
        </mxCell>
        <mxCell id="7ZhrNfoXhHtPn5ah-EHw-15" value="" style="rhombus;whiteSpace=wrap;html=1;" vertex="1" parent="1">
          <mxGeometry x="440" y="140" width="80" height="70" as="geometry" />
        </mxCell>
        <mxCell id="7ZhrNfoXhHtPn5ah-EHw-16" value="tiene" style="text;html=1;strokeColor=none;fillColor=none;align=center;verticalAlign=middle;whiteSpace=wrap;rounded=0;" vertex="1" parent="1">
          <mxGeometry x="460" y="165" width="40" height="20" as="geometry" />
        </mxCell>
        <mxCell id="7ZhrNfoXhHtPn5ah-EHw-17" value="1" style="text;html=1;strokeColor=none;fillColor=none;align=center;verticalAlign=middle;whiteSpace=wrap;rounded=0;" vertex="1" parent="1">
          <mxGeometry x="405" y="140" width="40" height="20" as="geometry" />
        </mxCell>
        <mxCell id="7ZhrNfoXhHtPn5ah-EHw-18" value="n" style="text;html=1;strokeColor=none;fillColor=none;align=center;verticalAlign=middle;whiteSpace=wrap;rounded=0;" vertex="1" parent="1">
          <mxGeometry x="510" y="140" width="40" height="20" as="geometry" />
        </mxCell>
        <mxCell id="7ZhrNfoXhHtPn5ah-EHw-19" style="edgeStyle=orthogonalEdgeStyle;rounded=0;orthogonalLoop=1;jettySize=auto;html=1;exitX=0.25;exitY=1;exitDx=0;exitDy=0;entryX=1;entryY=0;entryDx=0;entryDy=0;" edge="1" parent="1" source="7ZhrNfoXhHtPn5ah-EHw-21" target="7ZhrNfoXhHtPn5ah-EHw-6">
          <mxGeometry relative="1" as="geometry" />
        </mxCell>
        <mxCell id="7ZhrNfoXhHtPn5ah-EHw-20" style="edgeStyle=orthogonalEdgeStyle;rounded=0;orthogonalLoop=1;jettySize=auto;html=1;exitX=0.75;exitY=1;exitDx=0;exitDy=0;" edge="1" parent="1" source="7ZhrNfoXhHtPn5ah-EHw-21" target="7ZhrNfoXhHtPn5ah-EHw-5">
          <mxGeometry relative="1" as="geometry" />
        </mxCell>
        <mxCell id="7ZhrNfoXhHtPn5ah-EHw-21" value="" style="rounded=0;whiteSpace=wrap;html=1;" vertex="1" parent="1">
          <mxGeometry x="470" y="340" width="105" height="50" as="geometry" />
        </mxCell>
        <mxCell id="7ZhrNfoXhHtPn5ah-EHw-22" value="Jugadores" style="text;html=1;strokeColor=none;fillColor=none;align=center;verticalAlign=middle;whiteSpace=wrap;rounded=0;" vertex="1" parent="1">
          <mxGeometry x="510" y="355" width="40" height="20" as="geometry" />
        </mxCell>
        <mxCell id="7ZhrNfoXhHtPn5ah-EHw-23" style="edgeStyle=orthogonalEdgeStyle;rounded=0;orthogonalLoop=1;jettySize=auto;html=1;entryX=0.636;entryY=-0.067;entryDx=0;entryDy=0;entryPerimeter=0;" edge="1" parent="1" source="7ZhrNfoXhHtPn5ah-EHw-25" target="7ZhrNfoXhHtPn5ah-EHw-21">
          <mxGeometry relative="1" as="geometry">
            <mxPoint x="542.5" y="270" as="targetPoint" />
          </mxGeometry>
        </mxCell>
        <mxCell id="7ZhrNfoXhHtPn5ah-EHw-24" style="edgeStyle=orthogonalEdgeStyle;rounded=0;orthogonalLoop=1;jettySize=auto;html=1;exitX=1;exitY=0.5;exitDx=0;exitDy=0;" edge="1" parent="1" source="7ZhrNfoXhHtPn5ah-EHw-25" target="7ZhrNfoXhHtPn5ah-EHw-12">
          <mxGeometry relative="1" as="geometry" />
        </mxCell>
        <mxCell id="7ZhrNfoXhHtPn5ah-EHw-25" value="" style="rhombus;whiteSpace=wrap;html=1;" vertex="1" parent="1">
          <mxGeometry x="650" y="380" width="70" height="60" as="geometry" />
        </mxCell>
        <mxCell id="7ZhrNfoXhHtPn5ah-EHw-26" value="tiene" style="text;html=1;strokeColor=none;fillColor=none;align=center;verticalAlign=middle;whiteSpace=wrap;rounded=0;" vertex="1" parent="1">
          <mxGeometry x="665" y="400" width="40" height="20" as="geometry" />
        </mxCell>
        <mxCell id="7ZhrNfoXhHtPn5ah-EHw-27" value="1" style="text;html=1;strokeColor=none;fillColor=none;align=center;verticalAlign=middle;whiteSpace=wrap;rounded=0;" vertex="1" parent="1">
          <mxGeometry x="667.5" y="360" width="40" height="20" as="geometry" />
        </mxCell>
        <mxCell id="7ZhrNfoXhHtPn5ah-EHw-28" value="n" style="text;html=1;strokeColor=none;fillColor=none;align=center;verticalAlign=middle;whiteSpace=wrap;rounded=0;" vertex="1" parent="1">
          <mxGeometry x="625" y="417.5" width="40" height="20" as="geometry" />
        </mxCell>
        <mxCell id="7ZhrNfoXhHtPn5ah-EHw-29" style="edgeStyle=orthogonalEdgeStyle;rounded=0;orthogonalLoop=1;jettySize=auto;html=1;exitX=0.5;exitY=0;exitDx=0;exitDy=0;entryX=0;entryY=0.5;entryDx=0;entryDy=0;" edge="1" parent="1" source="7ZhrNfoXhHtPn5ah-EHw-30" target="7ZhrNfoXhHtPn5ah-EHw-10">
          <mxGeometry relative="1" as="geometry" />
        </mxCell>
        <mxCell id="7ZhrNfoXhHtPn5ah-EHw-30" value="Jornadas" style="text;html=1;strokeColor=none;fillColor=none;align=center;verticalAlign=middle;whiteSpace=wrap;rounded=0;" vertex="1" parent="1">
          <mxGeometry x="180" y="240" width="40" height="20" as="geometry" />
        </mxCell>
        <mxCell id="7ZhrNfoXhHtPn5ah-EHw-31" style="edgeStyle=orthogonalEdgeStyle;rounded=0;orthogonalLoop=1;jettySize=auto;html=1;exitX=0.5;exitY=1;exitDx=0;exitDy=0;entryX=0.75;entryY=1;entryDx=0;entryDy=0;" edge="1" parent="1" source="7ZhrNfoXhHtPn5ah-EHw-30" target="7ZhrNfoXhHtPn5ah-EHw-30">
          <mxGeometry relative="1" as="geometry" />
        </mxCell>
        <mxCell id="7ZhrNfoXhHtPn5ah-EHw-32" style="edgeStyle=orthogonalEdgeStyle;rounded=0;orthogonalLoop=1;jettySize=auto;html=1;entryX=0.2;entryY=1.05;entryDx=0;entryDy=0;entryPerimeter=0;" edge="1" parent="1" target="7ZhrNfoXhHtPn5ah-EHw-10">
          <mxGeometry relative="1" as="geometry">
            <mxPoint x="270" y="290" as="sourcePoint" />
          </mxGeometry>
        </mxCell>
        <mxCell id="7ZhrNfoXhHtPn5ah-EHw-33" value="Fechas&amp;nbsp;" style="text;html=1;strokeColor=none;fillColor=none;align=center;verticalAlign=middle;whiteSpace=wrap;rounded=0;" vertex="1" parent="1">
          <mxGeometry x="240" y="300" width="40" height="20" as="geometry" />
        </mxCell>
        <mxCell id="7ZhrNfoXhHtPn5ah-EHw-34" value="Años" style="text;html=1;strokeColor=none;fillColor=none;align=center;verticalAlign=middle;whiteSpace=wrap;rounded=0;" vertex="1" parent="1">
          <mxGeometry x="457.5" y="430" width="40" height="20" as="geometry" />
        </mxCell>
        <mxCell id="7ZhrNfoXhHtPn5ah-EHw-35" value="nombre" style="text;html=1;strokeColor=none;fillColor=none;align=center;verticalAlign=middle;whiteSpace=wrap;rounded=0;" vertex="1" parent="1">
          <mxGeometry x="557.5" y="432.5" width="40" height="20" as="geometry" />
        </mxCell>
        <mxCell id="7ZhrNfoXhHtPn5ah-EHw-36" style="edgeStyle=orthogonalEdgeStyle;rounded=0;orthogonalLoop=1;jettySize=auto;html=1;exitX=0.5;exitY=1;exitDx=0;exitDy=0;entryX=0.5;entryY=0;entryDx=0;entryDy=0;" edge="1" parent="1" source="7ZhrNfoXhHtPn5ah-EHw-39" target="7ZhrNfoXhHtPn5ah-EHw-42">
          <mxGeometry relative="1" as="geometry" />
        </mxCell>
        <mxCell id="7ZhrNfoXhHtPn5ah-EHw-37" style="edgeStyle=orthogonalEdgeStyle;rounded=0;orthogonalLoop=1;jettySize=auto;html=1;exitX=0.25;exitY=0;exitDx=0;exitDy=0;entryX=0.685;entryY=0.978;entryDx=0;entryDy=0;entryPerimeter=0;" edge="1" parent="1" source="7ZhrNfoXhHtPn5ah-EHw-39" target="7ZhrNfoXhHtPn5ah-EHw-47">
          <mxGeometry relative="1" as="geometry" />
        </mxCell>
        <mxCell id="7ZhrNfoXhHtPn5ah-EHw-38" style="edgeStyle=orthogonalEdgeStyle;rounded=0;orthogonalLoop=1;jettySize=auto;html=1;exitX=0.5;exitY=0;exitDx=0;exitDy=0;entryX=0.5;entryY=1;entryDx=0;entryDy=0;" edge="1" parent="1" source="7ZhrNfoXhHtPn5ah-EHw-39" target="7ZhrNfoXhHtPn5ah-EHw-46">
          <mxGeometry relative="1" as="geometry" />
        </mxCell>
        <mxCell id="7ZhrNfoXhHtPn5ah-EHw-39" value="" style="rounded=0;whiteSpace=wrap;html=1;" vertex="1" parent="1">
          <mxGeometry x="665" y="140" width="80" height="60" as="geometry" />
        </mxCell>
        <mxCell id="7ZhrNfoXhHtPn5ah-EHw-40" value="partidos" style="text;html=1;strokeColor=none;fillColor=none;align=center;verticalAlign=middle;whiteSpace=wrap;rounded=0;" vertex="1" parent="1">
          <mxGeometry x="687.5" y="160" width="40" height="20" as="geometry" />
        </mxCell>
        <mxCell id="7ZhrNfoXhHtPn5ah-EHw-41" style="edgeStyle=orthogonalEdgeStyle;rounded=0;orthogonalLoop=1;jettySize=auto;html=1;exitX=0.5;exitY=1;exitDx=0;exitDy=0;entryX=0.122;entryY=0;entryDx=0;entryDy=0;entryPerimeter=0;" edge="1" parent="1" source="7ZhrNfoXhHtPn5ah-EHw-42" target="7ZhrNfoXhHtPn5ah-EHw-12">
          <mxGeometry relative="1" as="geometry" />
        </mxCell>
        <mxCell id="7ZhrNfoXhHtPn5ah-EHw-42" value="" style="rhombus;whiteSpace=wrap;html=1;" vertex="1" parent="1">
          <mxGeometry x="672.5" y="220" width="70" height="60" as="geometry" />
        </mxCell>
        <mxCell id="7ZhrNfoXhHtPn5ah-EHw-43" value="juegan" style="text;html=1;strokeColor=none;fillColor=none;align=center;verticalAlign=middle;whiteSpace=wrap;rounded=0;" vertex="1" parent="1">
          <mxGeometry x="690" y="240" width="40" height="20" as="geometry" />
        </mxCell>
        <mxCell id="7ZhrNfoXhHtPn5ah-EHw-44" value="n" style="text;html=1;strokeColor=none;fillColor=none;align=center;verticalAlign=middle;whiteSpace=wrap;rounded=0;" vertex="1" parent="1">
          <mxGeometry x="637.5" y="220" width="40" height="20" as="geometry" />
        </mxCell>
        <mxCell id="7ZhrNfoXhHtPn5ah-EHw-45" value="n" style="text;html=1;strokeColor=none;fillColor=none;align=center;verticalAlign=middle;whiteSpace=wrap;rounded=0;" vertex="1" parent="1">
          <mxGeometry x="665" y="287.5" width="40" height="20" as="geometry" />
        </mxCell>
        <mxCell id="7ZhrNfoXhHtPn5ah-EHw-46" value="" style="ellipse;whiteSpace=wrap;html=1;" vertex="1" parent="1">
          <mxGeometry x="702.5" y="50" width="65" height="45" as="geometry" />
        </mxCell>
        <mxCell id="7ZhrNfoXhHtPn5ah-EHw-47" value="" style="ellipse;whiteSpace=wrap;html=1;" vertex="1" parent="1">
          <mxGeometry x="602.5" y="50" width="65" height="45" as="geometry" />
        </mxCell>
        <mxCell id="7ZhrNfoXhHtPn5ah-EHw-48" value="Goles" style="text;html=1;strokeColor=none;fillColor=none;align=center;verticalAlign=middle;whiteSpace=wrap;rounded=0;" vertex="1" parent="1">
          <mxGeometry x="615" y="60" width="40" height="22.5" as="geometry" />
        </mxCell>
        <mxCell id="7ZhrNfoXhHtPn5ah-EHw-49" value="corners" style="text;html=1;strokeColor=none;fillColor=none;align=center;verticalAlign=middle;whiteSpace=wrap;rounded=0;" vertex="1" parent="1">
          <mxGeometry x="712.5" y="62.5" width="40" height="20" as="geometry" />
        </mxCell>
        <mxCell id="7ZhrNfoXhHtPn5ah-EHw-50" value="Tiros de campo" style="text;html=1;strokeColor=none;fillColor=none;align=center;verticalAlign=middle;whiteSpace=wrap;rounded=0;" vertex="1" parent="1">
          <mxGeometry x="805" y="90" width="40" height="20" as="geometry" />
        </mxCell>
        <mxCell id="7ZhrNfoXhHtPn5ah-EHw-51" value="Tiros de Ataque" style="text;html=1;strokeColor=none;fillColor=none;align=center;verticalAlign=middle;whiteSpace=wrap;rounded=0;" vertex="1" parent="1">
          <mxGeometry x="793.75" y="185" width="40" height="20" as="geometry" />
        </mxCell>
      </root>
    </mxGraphModel>
  </diagram>
</mxfile>
